<svg width="41" height="55" viewBox="0 0 41 55" fill="none" xmlns="http://www.w3.org/2000/svg">
<path d="M5.8334 20.3533C11.6892 20.3533 0.745606 40.1594 8.75889 46.8833C16.7722 53.6073 35.8447 41.5808 35.5707 48.4C36.3896 52.5605 12.3693 58.404 4.35604 51.6801C-3.65725 44.9561 1.44151 20.3533 5.8334 20.3533Z" fill="#006499"/>
<path d="M19.1285 5.72709C19.1285 4.05258 20.486 2.69512 22.1605 2.69512C23.835 2.69512 25.1925 4.05258 25.1925 5.72709V36.0467C25.1925 37.7212 23.835 39.0787 22.1605 39.0787C20.486 39.0787 19.1285 37.7212 19.1285 36.0467V5.72709Z" fill="#006499"/>
<path d="M40.0155 8.55537C40.0155 13.2804 32.1724 5.70358 22.4974 5.70358C12.8225 5.70358 4.97944 13.2804 4.97944 8.55537C4.97944 3.83037 12.8225 0 22.4974 0C32.1724 0 40.0155 3.83037 40.0155 8.55537Z" fill="#006499"/>
<path d="M25.659 6.54645C24.5751 7.74645 25.7509 10.9348 24.6914 9.97777C23.4914 8.89386 22.6422 6.03073 23.7261 4.83073C24.81 3.63074 27.8833 5.23397 29.0833 6.31788C30.2833 7.40178 26.7429 5.34645 25.659 6.54645Z" fill="#006499"/>
<path d="M18.8499 6.56955C19.9338 7.76962 18.758 10.9579 19.8175 10.0009C21.0175 8.91696 21.8668 6.05391 20.7828 4.85384C19.6988 3.65377 16.6256 5.25707 15.4256 6.34098C14.2256 7.42489 17.7659 5.36949 18.8499 6.56955Z" fill="#006499"/>
</svg>
